<svg width="31" height="32" viewBox="0 0 31 32" fill="none" xmlns="http://www.w3.org/2000/svg">
<path d="M30.809 6.66727C30.6218 6.40237 30.323 6.24561 30.0054 6.24561H10.7755C10.226 6.24561 9.78086 6.70515 9.78086 7.27233C9.78086 7.83951 10.226 8.29906 10.7755 8.29906H28.6423L27.9251 10.6092H12.9581C12.4087 10.6092 11.9635 11.0688 11.9635 11.636C11.9635 12.2031 12.4087 12.6627 12.9581 12.6627H27.2872L26.4638 15.3151H14.1186C13.5691 15.3151 13.1239 15.7746 13.1239 16.342C13.1239 16.9092 13.5691 17.3688 14.1186 17.3688H25.8263L25.1357 19.5934H11.9806L6.5764 3.51348C6.48094 3.23004 6.27073 3.0041 6.00059 2.89431L1.3588 1.01202C0.847227 0.805275 0.269953 1.06466 0.0690408 1.59209C-0.131524 2.11981 0.119685 2.71607 0.630983 2.92346L4.8468 4.63302L10.007 19.9869C9.77927 20.0688 9.58626 20.2492 9.49836 20.5016L8.00637 24.7797C7.91494 25.042 7.95261 25.3335 8.10822 25.5614C8.26362 25.7894 8.51635 25.9251 8.78622 25.9251H9.55241C9.0776 26.4705 8.78622 27.1888 8.78622 27.9786C8.78622 29.6771 10.125 31.0588 11.7702 31.0588C13.4154 31.0588 14.7542 29.6771 14.7542 27.9786C14.7542 27.1888 14.4628 26.4705 13.988 25.9251H20.4938C20.0188 26.4705 19.7273 27.1888 19.7273 27.9786C19.7273 29.6771 21.0658 31.0588 22.7114 31.0588C24.3568 31.0588 25.6953 29.6771 25.6953 27.9786C25.6953 27.1888 25.404 26.4705 24.9292 25.9251H25.8612C26.319 25.9251 26.69 25.542 26.69 25.0694C26.69 24.5969 26.3189 24.2139 25.8612 24.2139H9.96561L10.8896 21.5645C11.0089 21.6163 11.1378 21.647 11.2728 21.647H25.8609C26.2934 21.647 26.6762 21.3586 26.8079 20.9338L30.9524 7.58593C31.0495 7.27341 30.9962 6.93217 30.809 6.66727ZM11.7702 29.3476C11.0388 29.3476 10.444 28.7336 10.444 27.9786C10.444 27.2236 11.0388 26.6096 11.7702 26.6096C12.5016 26.6096 13.0964 27.2236 13.0964 27.9786C13.0964 28.7336 12.5016 29.3476 11.7702 29.3476ZM22.7113 29.3476C21.9799 29.3476 21.385 28.7336 21.385 27.9786C21.385 27.2236 21.9799 26.6096 22.7113 26.6096C23.4427 26.6096 24.0375 27.2236 24.0375 27.9786C24.0375 28.7336 23.4427 29.3476 22.7113 29.3476Z" fill="black"/>
</svg>
