<svg width="219" height="61" viewBox="0 0 219 61" fill="none" xmlns="http://www.w3.org/2000/svg">
<path fill-rule="evenodd" clip-rule="evenodd" d="M90.3928 11.6509C86.0698 11.6509 83.7425 13.6977 83.4111 17.7902H87.0609C87.1951 16.1806 88.1023 15.3757 89.7802 15.3757H92.4548V27.4524H96.3085V15.3757H103.608V11.6509H90.3928Z" fill="#66B118"/>
<path fill-rule="evenodd" clip-rule="evenodd" d="M105.58 11.6509V19.5957C105.58 20.8004 105.761 21.8869 106.124 22.8585C106.487 23.8281 107.013 24.6526 107.7 25.329C108.388 26.0075 109.223 26.5296 110.205 26.8983C111.187 27.2671 112.29 27.4524 113.514 27.4524H125.71V23.7059H113.583C112.403 23.7059 111.512 23.5018 110.907 23.0947C110.303 22.6887 109.879 22.1014 109.638 21.3349H125.302V17.7902H109.434V15.3757H125.71V11.6509H105.58Z" fill="#66B118"/>
<path fill-rule="evenodd" clip-rule="evenodd" d="M135.796 11.6509C134.528 11.6509 133.402 11.828 132.42 12.1823C131.437 12.5355 130.61 13.0503 129.937 13.7288C129.265 14.4052 128.751 15.2318 128.396 16.2096C128.04 17.1894 127.863 18.2957 127.863 19.5294V27.4524H147.675V23.7059H131.717V19.5957C131.717 16.7824 133.099 15.3757 135.865 15.3757H147.675V11.6509H135.796Z" fill="#66B118"/>
<path fill-rule="evenodd" clip-rule="evenodd" d="M166.309 11.6509V17.7902H154.001V11.6509H150.146V27.4524H154.001V21.3566H166.309V27.4524H170.162V11.6509H166.309Z" fill="#66B118"/>
<path fill-rule="evenodd" clip-rule="evenodd" d="M190.858 11.6509V20.9278C190.858 21.1536 190.88 21.4996 190.925 21.9657L190.223 21.222C189.226 20.154 188.186 19.1296 187.106 18.1518C186.026 17.1729 184.906 16.2717 183.751 15.4441C182.594 14.6154 181.409 13.8779 180.193 13.2316C178.975 12.5842 177.733 12.0569 176.463 11.6509H173.131V27.4524H176.894V16.8435C176.894 16.6778 176.872 16.309 176.825 15.7372C177.023 15.8118 177.208 15.8833 177.381 15.9516C177.555 16.019 177.718 16.0749 177.87 16.1205C179.94 16.9036 182.021 18.2419 184.114 20.1385C186.207 22.0351 188.349 24.4714 190.54 27.4524H194.62V11.6509H190.858Z" fill="#66B118"/>
<path fill-rule="evenodd" clip-rule="evenodd" d="M205.388 11.6509C204.134 11.6509 203.016 11.8363 202.033 12.203C201.051 12.5738 200.22 13.1 199.539 13.7847C198.859 14.4683 198.342 15.297 197.986 16.2666C197.632 17.2382 197.455 18.3247 197.455 19.5294V27.4524H210.602C211.857 27.4524 212.975 27.2754 213.957 26.9211C214.939 26.5679 215.766 26.053 216.439 25.3746C217.111 24.6982 217.625 23.8737 217.981 22.9031C218.335 21.9336 218.513 20.8304 218.513 19.5957V11.6509H205.388ZM201.308 19.5957C201.308 18.7836 201.375 18.1072 201.513 17.5645C201.648 17.0238 201.874 16.5908 202.192 16.2666C202.509 15.9434 202.932 15.7145 203.461 15.5777C203.99 15.4441 204.655 15.3757 205.456 15.3757H214.659V19.5294C214.659 20.3415 214.588 21.019 214.443 21.5607C214.301 22.1014 214.066 22.5302 213.74 22.8472C213.417 23.1631 212.989 23.3858 212.46 23.5132C211.931 23.6406 211.281 23.7059 210.511 23.7059H201.308V19.5957Z" fill="#66B118"/>
<path fill-rule="evenodd" clip-rule="evenodd" d="M125.897 41.0737C123.373 41.0737 122.111 42.237 122.111 44.5614V46.1452H130.362C130.297 46.5481 130.149 46.8547 129.915 47.0681C129.682 47.2804 129.36 47.3861 128.948 47.3861H122.111V49.349H128.522C131.037 49.349 132.296 48.1868 132.296 45.8624V44.29H124.034C124.137 43.4468 124.612 43.0242 125.458 43.0242H132.261V41.0737H125.897Z" fill="#66B118"/>
<path fill-rule="evenodd" clip-rule="evenodd" d="M136.832 41.0737C134.567 41.0737 133.349 42.1468 133.174 44.29H135.085C135.157 43.4468 135.632 43.0242 136.51 43.0242H137.91V49.349H139.929V43.0242H143.751V41.0737H136.832Z" fill="#66B118"/>
<path fill-rule="evenodd" clip-rule="evenodd" d="M148.464 41.0737C147.807 41.0737 147.222 41.1711 146.707 41.3638C146.193 41.5575 145.758 41.833 145.402 42.1914C145.045 42.5508 144.775 42.9849 144.588 43.4924C144.402 44 144.31 44.5696 144.31 45.1995V49.349H151.195C151.851 49.349 152.438 49.2579 152.952 49.0724C153.466 48.885 153.898 48.6167 154.252 48.2614C154.603 47.9071 154.872 47.4762 155.059 46.9676C155.245 46.4591 155.338 45.8821 155.338 45.2357V41.0737H148.464ZM146.328 45.2357C146.328 44.811 146.363 44.4558 146.435 44.1719C146.506 43.8881 146.625 43.6612 146.791 43.4924C146.957 43.3215 147.179 43.2013 147.455 43.1319C147.732 43.0594 148.081 43.0242 148.5 43.0242H153.319V45.1995C153.319 45.6252 153.282 45.9804 153.206 46.2643C153.131 46.5481 153.009 46.7729 152.84 46.9376C152.669 47.1033 152.445 47.2193 152.168 47.2866C151.891 47.353 151.551 47.3861 151.147 47.3861H146.328V45.2357Z" fill="#66B118"/>
<path fill-rule="evenodd" clip-rule="evenodd" d="M156.857 41.0737V49.349H158.875V43.0242H165.939C165.875 43.4344 165.729 43.7483 165.499 43.9648C165.271 44.1823 164.95 44.29 164.537 44.29H159.813V46.1452H162.343L165.547 49.349H167.993L164.835 46.11C166.876 45.8976 167.898 44.7468 167.898 42.6586V41.0737H156.857Z" fill="#66B118"/>
<path fill-rule="evenodd" clip-rule="evenodd" d="M169.274 41.0737V45.2357C169.274 45.8655 169.37 46.4352 169.56 46.9438C169.75 47.4524 170.024 47.8833 170.384 48.2386C170.744 48.5928 171.182 48.8673 171.696 49.06C172.211 49.2527 172.788 49.349 173.429 49.349H179.816V47.3861H173.464C172.847 47.3861 172.38 47.2804 172.064 47.0681C171.748 46.8547 171.526 46.5481 171.399 46.1452H179.603V44.29H171.292V43.0242H179.816V41.0737H169.274Z" fill="#66B118"/>
<path fill-rule="evenodd" clip-rule="evenodd" d="M113.659 46.0781H118.502V44.3462H113.659V46.0781Z" fill="#66B118"/>
<path fill-rule="evenodd" clip-rule="evenodd" d="M182.313 46.0781H187.157V44.3462H182.313V46.0781Z" fill="#66B118"/>
<path fill-rule="evenodd" clip-rule="evenodd" d="M10.0092 12.439L0.539873 31.2831L0 40.9694L25.9273 32.581L28.8556 41.5541L23.0882 38.5963L9.52843 42.9835L45.0797 61L32.0318 21.0145L13.8293 26.9826L17.0156 20.0539L29.6767 15.963L30.041 15.8446L30.316 15.7564V15.7556L47.2803 10.2617L53.9479 14.003L35.6988 19.828L48.746 59.8143L66.8731 24.4302L53.3126 28.8181L50.3927 34.5859L47.4644 25.612L73.3923 17.2237L67.2376 9.70248L48.4539 0L27.1142 6.90477L10.0092 12.439Z" fill="#66B118"/>
</svg>
