<svg width="1059" height="297" viewBox="0 0 1059 297" fill="none" xmlns="http://www.w3.org/2000/svg">
<path fill-rule="evenodd" clip-rule="evenodd" d="M437.93 56.7271C416.986 56.7271 405.712 66.6926 404.106 86.6186H421.788C422.438 78.7814 426.834 74.8628 434.962 74.8628H447.92V133.663H466.591V74.8628H501.955V56.7271H437.93Z" fill="#66B118"/>
<path fill-rule="evenodd" clip-rule="evenodd" d="M511.509 56.7271V95.4092C511.509 101.275 512.387 106.565 514.144 111.295C515.904 116.016 518.451 120.031 521.78 123.324C525.11 126.627 529.159 129.169 533.916 130.965C538.673 132.76 544.015 133.663 549.948 133.663H609.032V115.421H550.281C544.565 115.421 540.246 114.428 537.317 112.445C534.391 110.469 532.337 107.609 531.168 103.877H607.055V86.6186H530.182V74.8628H609.032V56.7271H511.509Z" fill="#66B118"/>
<path fill-rule="evenodd" clip-rule="evenodd" d="M657.9 56.7271C651.754 56.7271 646.299 57.5895 641.542 59.3142C636.781 61.0341 632.775 63.5405 629.513 66.8441C626.257 70.1372 623.767 74.1618 622.049 78.9228C620.322 83.6935 619.464 89.0799 619.464 95.0864V133.663H715.449V115.421H638.134V95.4092C638.134 81.7116 644.833 74.8628 658.233 74.8628H715.449V56.7271H657.9Z" fill="#66B118"/>
<path fill-rule="evenodd" clip-rule="evenodd" d="M805.722 56.7271V86.6186H746.095V56.7271H727.418V133.663H746.095V103.983H805.722V133.663H824.389V56.7271H805.722Z" fill="#66B118"/>
<path fill-rule="evenodd" clip-rule="evenodd" d="M924.658 56.7271V101.895C924.658 102.994 924.765 104.679 924.984 106.948L921.58 103.327C916.752 98.1277 911.715 93.1398 906.48 88.3789C901.248 83.613 895.825 79.2251 890.228 75.1957C884.622 71.161 878.879 67.5702 872.988 64.4232C867.091 61.2712 861.072 58.7039 854.92 56.7271H838.778V133.663H857.006V82.0092C857.006 81.2022 856.899 79.4069 856.674 76.6228C857.632 76.986 858.529 77.3341 859.369 77.6667C860.212 77.9946 860.998 78.267 861.734 78.4888C871.762 82.3017 881.847 88.8176 891.985 98.0519C902.126 107.286 912.502 119.148 923.121 133.663H942.886V56.7271H924.658Z" fill="#66B118"/>
<path fill-rule="evenodd" clip-rule="evenodd" d="M995.052 56.7271C988.979 56.7271 983.56 57.6299 978.8 59.4152C974.042 61.2207 970.015 63.7826 966.715 67.1161C963.423 70.4449 960.919 74.4793 959.194 79.2002C957.476 83.9308 956.618 89.2209 956.618 95.0864V133.663H1020.31C1026.39 133.663 1031.81 132.8 1036.57 131.075C1041.33 129.356 1045.33 126.849 1048.59 123.546C1051.85 120.252 1054.34 116.238 1056.06 111.513C1057.78 106.792 1058.64 101.421 1058.64 95.4092V56.7271H995.052ZM975.286 95.4092C975.286 91.4553 975.612 88.1618 976.28 85.5194C976.933 82.8868 978.031 80.7787 979.568 79.2002C981.106 77.6266 983.157 76.512 985.718 75.8461C988.282 75.1957 991.502 74.8628 995.384 74.8628H1039.97V95.0864C1039.97 99.0403 1039.63 102.339 1038.93 104.976C1038.24 107.609 1037.1 109.697 1035.52 111.24C1033.95 112.778 1031.88 113.863 1029.32 114.483C1026.75 115.103 1023.61 115.421 1019.87 115.421H975.286V95.4092Z" fill="#66B118"/>
<path fill-rule="evenodd" clip-rule="evenodd" d="M609.94 199.982C597.712 199.982 591.596 205.646 591.596 216.963V224.674H631.569C631.255 226.636 630.537 228.129 629.406 229.168C628.278 230.201 626.714 230.716 624.72 230.716H591.596V240.273H622.654C634.843 240.273 640.942 234.615 640.942 223.297V215.642H600.912C601.41 211.536 603.713 209.479 607.812 209.479H640.77V199.982H609.94Z" fill="#66B118"/>
<path fill-rule="evenodd" clip-rule="evenodd" d="M662.916 199.982C651.944 199.982 646.044 205.207 645.195 215.642H654.454C654.802 211.536 657.105 209.479 661.358 209.479H668.142V240.273H677.924V209.479H696.437V199.982H662.916Z" fill="#66B118"/>
<path fill-rule="evenodd" clip-rule="evenodd" d="M719.272 199.982C716.087 199.982 713.256 200.456 710.76 201.394C708.27 202.337 706.16 203.679 704.436 205.424C702.708 207.174 701.397 209.287 700.494 211.758C699.592 214.229 699.144 217.003 699.144 220.07V240.273H732.502C735.681 240.273 738.524 239.829 741.014 238.926C743.504 238.014 745.6 236.707 747.315 234.977C749.013 233.253 750.318 231.155 751.221 228.678C752.123 226.202 752.574 223.393 752.574 220.246V199.982H719.272ZM708.923 220.246C708.923 218.178 709.092 216.449 709.439 215.067C709.784 213.685 710.36 212.58 711.164 211.758C711.971 210.926 713.045 210.341 714.384 210.003C715.725 209.65 717.414 209.479 719.444 209.479H742.792V220.07C742.792 222.142 742.611 223.872 742.243 225.254C741.881 226.636 741.29 227.73 740.471 228.532C739.643 229.339 738.56 229.904 737.215 230.232C735.874 230.555 734.227 230.716 732.271 230.716H708.923V220.246Z" fill="#66B118"/>
<path fill-rule="evenodd" clip-rule="evenodd" d="M759.934 199.982V240.273H769.71V209.479H803.932C803.621 211.476 802.914 213.004 801.801 214.058C800.694 215.117 799.142 215.642 797.139 215.642H774.254V224.674H786.508L802.033 240.273H813.883L798.581 224.503C808.473 223.469 813.423 217.865 813.423 207.698V199.982H759.934Z" fill="#66B118"/>
<path fill-rule="evenodd" clip-rule="evenodd" d="M820.092 199.982V220.246C820.092 223.312 820.555 226.086 821.478 228.563C822.395 231.039 823.725 233.137 825.467 234.867C827.212 236.591 829.334 237.928 831.824 238.866C834.317 239.804 837.116 240.273 840.22 240.273H871.163V230.716H840.389C837.401 230.716 835.139 230.201 833.608 229.168C832.076 228.129 831.002 226.636 830.388 224.674H870.13V215.642H829.868V209.479H871.163V199.982H820.092Z" fill="#66B118"/>
<path fill-rule="evenodd" clip-rule="evenodd" d="M550.648 224.346H574.113V215.914H550.648V224.346Z" fill="#66B118"/>
<path fill-rule="evenodd" clip-rule="evenodd" d="M883.263 224.346H906.727V215.914H883.263V224.346Z" fill="#66B118"/>
<path fill-rule="evenodd" clip-rule="evenodd" d="M48.4923 60.5636L2.61555 152.313L0 199.474L125.611 158.632L139.798 202.321L111.857 187.92L46.1628 209.28L218.4 297L155.186 102.316L66.9997 131.374L82.4363 97.6393L143.776 77.7213L145.541 77.1452L146.873 76.7157V76.7118L229.061 49.9625L261.364 68.1784L172.952 96.5396L236.162 291.227L323.983 118.947L258.286 140.311L244.14 168.394L229.953 124.701L355.567 83.8597L325.749 47.2399L234.747 0L131.361 33.6183L48.4923 60.5636Z" fill="#66B118"/>
</svg>
